# xmcd CD database file
#
# Track frame offsets:
#	150
#	25180
#	47735
#	81660
#	101423
#	127165
#	147884
#	177904
#	191233
#	256115
#	284035
#	315377
#
# Disc length: 4551 seconds
#
# Revision: 0
# Processed by: cddbd v1.5.1PL2 Copyright (c) Steve Scherf et al.
# Submitted via: Feurio! 1.68 - http://www.feurio.com
#
DISCID=b111c50c
DTITLE=Gary Moore - Hell Blues Alive
DYEAR=1900
DGENRE=Bluesrock
TTITLE0=Cold Day In Hell
TTITLE1=Walking By Myself
TTITLE2=Story Of The Blues
TTITLE3=Oh Pretty Woman
TTITLE4=Seperate Ways
TTITLE5=Too Tired
TTITLE6=Still Got The Blues
TTITLE7=Since I Met You Baby
TTITLE8=The Sky Is Crying
TTITLE9=King Of The Blues
TTITLE10=Parisienne Walkways
TTITLE11=Jumpin' At Shadows
EXTD=
EXTT0=
EXTT1=
EXTT2=
EXTT3=
EXTT4=
EXTT5=
EXTT6=
EXTT7=
EXTT8=
EXTT9=
EXTT10=
EXTT11=
PLAYORDER=
